<?xml version="1.0" encoding="UTF-8"?>
<svg id="Layer_1" xmlns="http://www.w3.org/2000/svg" version="1.1" viewBox="0 0 32 32">
  <!-- Generator: Adobe Illustrator 30.3.0, SVG Export Plug-In . SVG Version: 2.1.3 Build 182)  -->
  <defs>
    <style>
      .st0 {
        fill: #30363d;
      }

      .st1 {
        fill: #0d1117;
      }

      .st2 {
        fill: #22c55e;
        font-family: SFMono-Bold, 'SF Mono';
        font-size: 14px;
        font-weight: 700;
        isolation: isolate;
      }
    </style>
  </defs>
  <g>
    <rect class="st1" x=".4" y=".5" width="31" height="31" rx="5.5" ry="5.5"/>
    <path class="st0" d="M25.9,1c2.8,0,5,2.2,5,5v20c0,2.8-2.2,5-5,5H5.9c-2.8,0-5-2.2-5-5V6C.9,3.2,3.2,1,5.9,1h20M25.9,0H5.9C2.6,0,0,2.7,0,6v20c0,3.3,2.7,6,6,6h20c3.3,0,6-2.7,6-6V6C31.9,2.7,29.3,0,25.9,0h0Z"/>
  </g>
  <text class="st2" transform="translate(3 19.1)"><tspan x="0" y="0">gtl</tspan></text>
</svg>